<?xml version="1.0" encoding="utf-8"?>
<!-- Generator: Adobe Illustrator 26.0.1, SVG Export Plug-In . SVG Version: 6.00 Build 0)  -->
<svg version="1.1" id="Layer_2_00000082356380784642414390000007785900085597370534_"
	 xmlns="http://www.w3.org/2000/svg" xmlns:xlink="http://www.w3.org/1999/xlink" x="0px" y="0px" viewBox="0 0 40 40"
	 style="enable-background:new 0 0 40 40;" xml:space="preserve">
<style type="text/css">
	.st0{fill:#FFFFFF;}
</style>
<g>
	<path class="st0" d="M0,34.2c0-6.9,0-13.8,0-20.7c0-0.1,0.1-0.2,0.1-0.3c0.2-1.7,1.5-3.1,3.2-3.3c0.6-0.1,1.3,0,1.9,0
		c0-0.2,0.1-0.3,0.1-0.4c0.1-1.1,0.3-2.3,0.4-3.4c0.2-2.4,2.2-3.9,4.5-3.6c1.7,0.2,3.4,0.4,5.2,0.6c3.3,0.4,6.6,0.7,10,1.1
		C29,4.6,32.7,5,36.3,5.4c2.4,0.3,4,2.1,3.8,4.4c-0.3,3-0.7,6-1,9c-0.4,3.4-0.8,6.8-1.2,10.3c-0.2,1.8-1,3.2-2.8,3.7
		c-0.4,0.1-0.5,0.3-0.5,0.7c0.1,1-0.2,1.8-0.9,2.6c-0.9,1-2.1,1.5-3.4,1.4c-4.2,0-8.3,0-12.5,0c-4.6,0-9.2,0-13.8,0
		c-1.3,0-2.5-0.5-3.2-1.6C0.4,35.4,0.2,34.8,0,34.2z M1.9,27.7c0.2-0.1,0.3-0.2,0.5-0.3c1.9-1.4,3.8-2.8,5.8-4.2
		c1.9-1.4,4-1.3,5.8,0.3c1.6,1.4,3.3,2.9,4.9,4.3c1,0.9,2,1,3.2,0.3c3.4-2,6.7-3.9,10.1-5.9c0.2-0.1,0.3-0.3,0.3-0.6
		c0-2.5,0-5,0-7.5c0-0.3,0-0.5-0.1-0.8c-0.3-1-1.1-1.6-2.3-1.6c-8.7,0-17.4,0-26.1,0c-0.1,0-0.2,0-0.3,0c-0.5,0-0.8,0.2-1.1,0.5
		C2.1,12.7,2,13.3,2,13.9c0,4.4,0,8.9,0,13.3C1.9,27.4,1.9,27.5,1.9,27.7z M32.5,24.3c-0.2,0.1-0.3,0.2-0.4,0.2
		c-3,1.7-5.9,3.4-8.9,5.1c-0.3,0.2-0.6,0.3-0.9,0.5c-1.8,0.7-3.4,0.3-4.8-0.9c-1.7-1.5-3.3-2.9-5-4.4c-1-0.9-2.1-1-3.1-0.3
		c-2.5,1.8-4.9,3.6-7.4,5.4c0,0.2,0,0.4,0,0.5c0,1.2,0,2.4,0,3.6c0,0.8,0.6,1.4,1.3,1.6c0.3,0.1,0.5,0.1,0.8,0.1c8.7,0,17.3,0,26,0
		c0.2,0,0.3,0,0.5,0c1.3-0.1,2-0.9,2-2.2c0-2.9,0-5.7,0-8.6C32.5,24.7,32.5,24.6,32.5,24.3z M7.2,9.9c0.2,0,0.4,0,0.5,0
		c7.5,0,15,0,22.5,0c0.7,0,1.4,0.1,2,0.4c1.6,0.8,2.3,2.1,2.3,3.9c0,5.4,0,10.9,0,16.3c0,0.2,0,0.3,0,0.5c0.7-0.3,1.1-0.7,1.2-1.4
		c0.3-2.9,0.7-5.9,1-8.8c0.4-3.7,0.9-7.4,1.3-11.1c0.1-1.1-0.5-2-1.6-2.2c-1.6-0.2-3.2-0.4-4.7-0.6c-3.5-0.4-7-0.8-10.5-1.2
		C17.5,5.3,13.7,4.9,10,4.4C8.7,4.3,7.8,4.9,7.6,6.2C7.4,7.4,7.3,8.6,7.2,9.9z"/>
	<path class="st0" d="M20.3,23c-2.2,0-4.1-1.8-4.1-4.1c0-2.2,1.8-4.1,4.1-4.1c2.2,0,4.1,1.8,4.1,4.1C24.3,21.2,22.5,23,20.3,23z
		 M20.2,16.8c-1.2,0-2.1,1-2.1,2.1c0,1.2,1,2.1,2.1,2.1c1.2,0,2.1-1,2.1-2.1C22.4,17.7,21.4,16.8,20.2,16.8z"/>
</g>
</svg>
