<?xml version="1.0" encoding="utf-8"?>
<!-- Generator: Adobe Illustrator 26.0.1, SVG Export Plug-In . SVG Version: 6.00 Build 0)  -->
<svg version="1.1" id="Layer_1" xmlns="http://www.w3.org/2000/svg" xmlns:xlink="http://www.w3.org/1999/xlink" x="0px" y="0px"
	 viewBox="0 0 40 40" style="enable-background:new 0 0 40 40;" xml:space="preserve">
<style type="text/css">
	.st0{fill:#FFFFFF;}
</style>
<path class="st0" d="M20,2.5c4.7,0,9.1,1.8,12.4,5.1s5.1,7.7,5.1,12.4s-1.8,9.1-5.1,12.4s-7.7,5.1-12.4,5.1s-9.1-1.8-12.4-5.1
	S2.5,24.7,2.5,20s1.8-9.1,5.1-12.4S15.3,2.5,20,2.5 M20,0C9,0,0,9,0,20s9,20,20,20s20-9,20-20S31,0,20,0L20,0z"/>
<path class="st0" d="M21.6,22.1c0,1.8,0,3.6,0,5.3c0,1.1-1.1,1.8-2.1,1.4c-0.6-0.2-1-0.7-1-1.4c0-0.1,0-0.2,0-0.3
	c0-3.4,0-6.8,0-10.2c0-0.8,0.4-1.4,1-1.7c1-0.4,2.1,0.3,2.1,1.4C21.6,18.5,21.6,20.3,21.6,22.1z"/>
<path class="st0" d="M21.6,11.7c0,0.9-0.7,1.6-1.6,1.6c-0.9,0-1.6-0.7-1.6-1.6c0-0.9,0.7-1.6,1.6-1.6C20.9,10.1,21.6,10.8,21.6,11.7
	z"/>
</svg>
