<?xml version="1.0" encoding="utf-8"?>
<!-- Generator: Adobe Illustrator 26.0.1, SVG Export Plug-In . SVG Version: 6.00 Build 0)  -->
<svg version="1.1" id="Layer_1" xmlns="http://www.w3.org/2000/svg" xmlns:xlink="http://www.w3.org/1999/xlink" x="0px" y="0px"
	 viewBox="0 0 40 40" style="enable-background:new 0 0 40 40;" xml:space="preserve">
<style type="text/css">
	.st0{fill:#FFFFFF;}
</style>
<path class="st0" d="M0,25.2c0.2-0.9,0.3-1.9,0.5-2.8c0.9-3,2.6-5.3,5.2-7c2.4-1.6,5-2.2,7.8-2c2.2,0.1,4.2,0.8,6.1,2.1
	c0.3,0.2,0.5,0.2,0.8,0c4.9-3.2,11.2-2.7,15.5,1.3c3.1,2.9,4.5,6.5,4,10.8c-0.6,5.4-4.4,9.6-9.7,10.9c-3.5,0.8-6.7,0.3-9.7-1.7
	c-0.4-0.2-0.6-0.3-1,0c-4.3,2.9-10.2,2.7-14.4-0.5c-2.6-1.9-4.2-4.5-4.9-7.6c-0.1-0.6-0.2-1.2-0.3-1.8C0,26.2,0,25.7,0,25.2z
	 M22.5,34c3.5,2.2,8.8,1.8,12.1-2.1c3.1-3.7,2.9-9.2-0.6-12.7c-3.4-3.4-8.5-3.4-11.5-1.4C26.3,23.3,26.3,28.7,22.5,34z M17.5,17.9
	c-3.8-2.4-9.4-1.4-12.2,2.2c-3.1,4-2.6,9.4,0.9,12.7c3.6,3.4,8.7,3.1,11.3,1.2C13.7,28.6,13.7,23.3,17.5,17.9z M20,31.8
	c3.2-3.9,2.3-9.3,0-11.7C17,23.7,17.4,28.9,20,31.8z"/>
<path class="st0" d="M20,3c0.3-0.3,0.6-0.5,0.9-0.8c1.6-1.4,3.9-0.7,4.9,0.9c0.9,1.5,0.8,3-0.2,4.4c-1.3,1.8-3,3.2-4.9,4.3
	c-0.5,0.3-0.9,0.3-1.4,0c-1.9-1.1-3.5-2.5-4.9-4.2c-1.1-1.4-1.1-3.4-0.1-4.7C15.8,1,18,0.9,19.6,2.6C19.8,2.7,19.9,2.8,20,3z"/>
<rect x="-7.4" y="19.8" transform="matrix(0.7071 0.7071 -0.7071 0.7071 20 -8.2843)" class="st0" width="54.9" height="0.5"/>
<rect x="-7.4" y="19.8" transform="matrix(-0.7071 0.7071 -0.7071 -0.7071 48.2843 20)" class="st0" width="54.9" height="0.5"/>
</svg>
