<?xml version="1.0" encoding="utf-8"?>
<!-- Generator: Adobe Illustrator 26.0.1, SVG Export Plug-In . SVG Version: 6.00 Build 0)  -->
<svg version="1.1" id="Layer_1" xmlns="http://www.w3.org/2000/svg" xmlns:xlink="http://www.w3.org/1999/xlink" x="0px" y="0px"
	 viewBox="0 0 780 1080" style="enable-background:new 0 0 780 1080;" xml:space="preserve">
<style type="text/css">
	.st0{fill:#FFFFFF;}
</style>
<path class="st0" d="M382.5,738c-20.2,0-33-9.4-36.4-26.9c-4.6-23.4,10.8-42.1,34.6-42.4c10-0.1,19.2,1.5,26.9,8.4
	c11,9.8,14.6,26.1,9.1,40.2C411.3,730.9,399.6,738,382.5,738z"/>
<path class="st0" d="M410.3,620.7c-20,0-39.9,0-60.2,0c0-27.8,2.9-54.7,21-77.3c8.4-10.5,17.9-20.1,27-30
	c8.1-8.8,16.8-17.1,24.5-26.3c14.4-17.4,17.7-37.6,12.4-59.2c-4.7-19.1-18.3-30.5-38-31.9c-7.4-0.5-15-0.4-22.3,1
	c-21.7,4.1-35.1,19.7-36.9,41.8c-0.1,1.3-0.2,2.6-0.4,4.3c-21.5,0-42.8,0-64.7,0c-0.1-14.1,2.2-27.6,7.4-40.4
	c9.7-23.7,26.8-40.7,50-50.3c38.6-16,78-16.3,116.5-0.3c33.7,14.1,50.6,41.4,54.7,77.3c4.7,40.2-12.3,71.7-38.8,99.6
	c-9.4,9.9-19.1,19.5-29.1,28.8c-12.4,11.4-18.3,25.9-21,42C411.6,606.6,411.1,613.4,410.3,620.7z"/>
<path class="st0" d="M390.1,0.5L390.1,0.5c-215.4,0-390,174.6-390,390v300c0,215.4,174.6,390,390,390h0c215.4,0,390-174.6,390-390
	v-300C780.1,175.1,605.5,0.5,390.1,0.5z M733.1,690.5c0,91.6-35.7,177.8-100.5,242.5s-150.9,100.5-242.5,100.5
	c-91.6,0-177.8-35.7-242.5-100.5S47.1,782.1,47.1,690.5v-300c0-91.6,35.7-177.8,100.5-242.5C212.3,83.1,298.5,47.5,390.1,47.5
	s177.8,35.7,242.5,100.5c64.8,64.8,100.5,150.9,100.5,242.5V690.5z"/>
</svg>
